# Blender 4.1.1
# www.blender.org
mtllib antebrazo2.mtl
o antebrazo2
v 3.407308 -0.842705 -0.108142
v 3.407308 0.857028 -0.108142
v 3.407308 -0.842705 -3.353450
v 3.407308 0.857028 -3.353450
v 5.106535 -0.842705 -0.108142
v 5.106535 0.857028 -0.108142
v 5.106535 -0.842705 -3.353450
v 5.106535 0.857028 -3.353450
vn -1.0000 -0.0000 -0.0000
vn -0.0000 -0.0000 -1.0000
vn 1.0000 -0.0000 -0.0000
vn -0.0000 -0.0000 1.0000
vn -0.0000 -1.0000 -0.0000
vn -0.0000 1.0000 -0.0000
vt 0.613780 0.563538
vt 0.562728 0.652025
vt 0.563820 0.562762
vt 0.559425 0.583704
vt 0.517608 0.625520
vt 0.517608 0.583704
vt 0.461449 0.650174
vt 0.509231 0.563756
vt 0.509110 0.650125
vt 0.558743 0.589118
vt 0.521058 0.626803
vt 0.521058 0.589118
vt 0.559813 0.581618
vt 0.516224 0.625207
vt 0.516224 0.581618
vt 0.511627 0.652758
vt 0.562285 0.562454
vt 0.562530 0.652298
vt 0.612514 0.652025
vt 0.559425 0.625520
vt 0.462643 0.563797
vt 0.558743 0.626803
vt 0.559813 0.625207
vt 0.511357 0.561581
s 0
usemtl hombro
f 2/1/1 3/2/1 1/3/1
f 4/4/2 7/5/2 3/6/2
f 8/7/3 5/8/3 7/9/3
f 6/10/4 1/11/4 5/12/4
f 7/13/5 1/14/5 3/15/5
f 4/16/6 6/17/6 8/18/6
f 2/1/1 4/19/1 3/2/1
f 4/4/2 8/20/2 7/5/2
f 8/7/3 6/21/3 5/8/3
f 6/10/4 2/22/4 1/11/4
f 7/13/5 5/23/5 1/14/5
f 4/16/6 2/24/6 6/17/6
