# Blender 4.1.1
# www.blender.org
mtllib cabeza.mtl
o Cabeza
v -0.985748 -1.023416 -6.190564
v -0.985748 0.976584 -6.190564
v -0.985748 -1.023416 -8.190564
v -0.985748 0.976584 -8.190564
v 1.014252 -1.023416 -6.190564
v 1.014252 0.976584 -6.190564
v 1.014252 -1.023416 -8.190564
v 1.014252 0.976584 -8.190564
vn -1.0000 -0.0000 -0.0000
vn -0.0000 -0.0000 -1.0000
vn 1.0000 -0.0000 -0.0000
vn -0.0000 -0.0000 1.0000
vn -0.0000 -1.0000 -0.0000
vn -0.0000 1.0000 -0.0000
vt 0.565318 0.509423
vt 0.351565 0.682960
vt 0.350536 0.506204
vt 0.560289 0.682882
vt 0.764647 0.938104
vt 0.559214 0.939140
vt 0.768879 0.683096
vt 0.972744 0.507921
vt 0.973276 0.682060
vt 0.763617 0.502818
vt 0.564605 0.249385
vt 0.763921 0.249553
vt 0.151043 0.685002
vt 0.356677 0.506493
vt 0.355423 0.686909
vt 0.568016 0.683205
vt 0.758706 0.496080
vt 0.757324 0.685388
vt 0.564949 0.682267
vt 0.766226 0.685666
vt 0.770086 0.507522
vt 0.563575 0.502301
vt 0.152149 0.505659
vt 0.569398 0.493898
s 0
usemtl rostro
f 2/1/1 3/2/1 1/3/1
f 4/4/2 7/5/2 3/6/2
f 8/7/3 5/8/3 7/9/3
f 6/10/4 1/11/4 5/12/4
f 7/13/5 1/14/5 3/15/5
f 4/16/6 6/17/6 8/18/6
f 2/1/1 4/19/1 3/2/1
f 4/4/2 8/20/2 7/5/2
f 8/7/3 6/21/3 5/8/3
f 6/10/4 2/22/4 1/11/4
f 7/13/5 5/23/5 1/14/5
f 4/16/6 2/24/6 6/17/6
