# Blender 4.1.1
# www.blender.org
mtllib hombro2.mtl
o Hombro2
v 2.996870 -1.086851 -3.321891
v 2.996870 1.101173 -3.321891
v 2.996870 -1.086851 -6.249803
v 2.996870 1.101173 -6.249803
v 5.516973 -1.086851 -3.321891
v 5.516973 1.101173 -3.321891
v 5.516973 -1.086851 -6.249803
v 5.516973 1.101173 -6.249803
vn -1.0000 -0.0000 -0.0000
vn -0.0000 -0.0000 -1.0000
vn 1.0000 -0.0000 -0.0000
vn -0.0000 -0.0000 1.0000
vn -0.0000 -1.0000 -0.0000
vn -0.0000 1.0000 -0.0000
vt 0.860251 0.739937
vt 0.819097 0.781091
vt 0.819097 0.739937
vt 0.897951 0.816388
vt 0.871071 0.843269
vt 0.871071 0.816388
vt 0.864004 0.898971
vt 0.908233 0.862752
vt 0.908516 0.899359
vt 0.900273 0.812829
vt 0.871466 0.841636
vt 0.871466 0.812829
vt 0.958170 0.977589
vt 0.897808 0.943231
vt 0.957601 0.942662
vt 0.811885 0.897614
vt 0.856572 0.865341
vt 0.856593 0.897614
vt 0.860251 0.781091
vt 0.897951 0.843269
vt 0.864146 0.863148
vt 0.900273 0.841636
vt 0.898377 0.978158
vt 0.812419 0.864339
s 0
usemtl hombro
f 2/1/1 3/2/1 1/3/1
f 4/4/2 7/5/2 3/6/2
f 8/7/3 5/8/3 7/9/3
f 6/10/4 1/11/4 5/12/4
f 7/13/5 1/14/5 3/15/5
f 4/16/6 6/17/6 8/18/6
f 2/1/1 4/19/1 3/2/1
f 4/4/2 8/20/2 7/5/2
f 8/7/3 6/21/3 5/8/3
f 6/10/4 2/22/4 1/11/4
f 7/13/5 5/23/5 1/14/5
f 4/16/6 2/24/6 6/17/6
