# Blender 4.1.1
# www.blender.org
mtllib mano2.mtl
o Mano2
v 3.842524 -0.621971 1.079711
v 3.842524 0.636293 1.079711
v 3.842524 -0.621971 -0.092060
v 3.842524 0.636293 -0.092060
v 4.671319 -0.621971 1.079711
v 4.671319 0.636293 1.079711
v 4.671319 -0.621971 -0.092060
v 4.671319 0.636293 -0.092060
vn -1.0000 -0.0000 -0.0000
vn -0.0000 -0.0000 -1.0000
vn 1.0000 -0.0000 -0.0000
vn -0.0000 -0.0000 1.0000
vn -0.0000 -1.0000 -0.0000
vn -0.0000 1.0000 -0.0000
vt 0.851050 0.391790
vt 0.895316 0.347525
vt 0.895316 0.391790
vt 0.895313 0.365049
vt 0.854477 0.405884
vt 0.854477 0.365049
vt 0.464133 0.562215
vt 0.512764 0.498927
vt 0.512308 0.562486
vt 0.512276 0.498892
vt 0.465961 0.523964
vt 0.466169 0.499237
vt 0.898523 0.348391
vt 0.847703 0.399211
vt 0.847703 0.348391
vt 0.679841 0.339342
vt 0.631856 0.387327
vt 0.631856 0.339342
vt 0.851050 0.347525
vt 0.895313 0.405884
vt 0.465692 0.498757
vt 0.512079 0.524088
vt 0.898523 0.399211
vt 0.679841 0.387327
s 0
usemtl hombro
f 2/1/1 3/2/1 1/3/1
f 4/4/2 7/5/2 3/6/2
f 8/7/3 5/8/3 7/9/3
f 6/10/4 1/11/4 5/12/4
f 7/13/5 1/14/5 3/15/5
f 4/16/6 6/17/6 8/18/6
f 2/1/1 4/19/1 3/2/1
f 4/4/2 8/20/2 7/5/2
f 8/7/3 6/21/3 5/8/3
f 6/10/4 2/22/4 1/11/4
f 7/13/5 5/23/5 1/14/5
f 4/16/6 2/24/6 6/17/6
