# Blender 4.1.1
# www.blender.org
mtllib mano1.mtl
o Mano1
v -4.589530 -0.621971 1.079711
v -4.589530 0.636293 1.079711
v -4.589530 -0.621971 -0.092060
v -4.589530 0.636293 -0.092060
v -3.760735 -0.621971 1.079711
v -3.760735 0.636293 1.079711
v -3.760735 -0.621971 -0.092060
v -3.760735 0.636293 -0.092060
vn -1.0000 -0.0000 -0.0000
vn -0.0000 -0.0000 -1.0000
vn 1.0000 -0.0000 -0.0000
vn -0.0000 -0.0000 1.0000
vn -0.0000 -1.0000 -0.0000
vn -0.0000 1.0000 -0.0000
vt 0.614491 0.501926
vt 0.693913 0.536345
vt 0.613355 0.536835
vt 0.673400 0.341774
vt 0.637062 0.378112
vt 0.637062 0.341774
vt 0.674756 0.333549
vt 0.635823 0.372482
vt 0.635823 0.333549
vt 0.612663 0.502319
vt 0.643275 0.536086
vt 0.612197 0.536350
vt 0.676404 0.337808
vt 0.638436 0.375777
vt 0.638436 0.337808
vt 0.672332 0.345678
vt 0.640168 0.377842
vt 0.640168 0.345678
vt 0.694781 0.502427
vt 0.673400 0.378112
vt 0.674756 0.372482
vt 0.643767 0.502015
vt 0.676404 0.375777
vt 0.672332 0.377842
s 0
usemtl hombro
f 2/1/1 3/2/1 1/3/1
f 4/4/2 7/5/2 3/6/2
f 8/7/3 5/8/3 7/9/3
f 6/10/4 1/11/4 5/12/4
f 7/13/5 1/14/5 3/15/5
f 4/16/6 6/17/6 8/18/6
f 2/1/1 4/19/1 3/2/1
f 4/4/2 8/20/2 7/5/2
f 8/7/3 6/21/3 5/8/3
f 6/10/4 2/22/4 1/11/4
f 7/13/5 5/23/5 1/14/5
f 4/16/6 2/24/6 6/17/6
