# Blender 4.1.1
# www.blender.org
mtllib pecho.mtl
o Pecho
v -2.961139 -1.262251 -2.966372
v -2.961139 1.231674 -2.966372
v -2.961139 -1.262251 -6.239508
v -2.961139 1.231674 -6.239508
v 3.004144 -1.262251 -2.966372
v 3.004144 1.231674 -2.966372
v 3.004144 -1.262251 -6.239508
v 3.004144 1.231674 -6.239508
vn -1.0000 -0.0000 -0.0000
vn -0.0000 -0.0000 -1.0000
vn 1.0000 -0.0000 -0.0000
vn -0.0000 -0.0000 1.0000
vn -0.0000 -1.0000 -0.0000
vn -0.0000 1.0000 -0.0000
vt 0.577244 0.734913
vt 0.515046 0.783817
vt 0.514713 0.734096
vt 0.577844 0.735351
vt 0.514622 0.783549
vt 0.514947 0.734125
vt 0.577461 0.734652
vt 0.513930 0.783342
vt 0.513591 0.734178
vt 0.577507 0.734258
vt 0.513258 0.783970
vt 0.513598 0.734414
vt 0.513247 0.784205
vt 0.576897 0.734165
vt 0.577099 0.783719
vt 0.581040 0.784380
vt 0.747559 0.733751
vt 0.746757 0.784658
vt 0.577474 0.784289
vt 0.577680 0.783295
vt 0.576798 0.783342
vt 0.577334 0.784227
vt 0.513247 0.734562
vt 0.581070 0.733412
s 0
usemtl pecho
f 2/1/1 3/2/1 1/3/1
f 4/4/2 7/5/2 3/6/2
f 8/7/3 5/8/3 7/9/3
f 6/10/4 1/11/4 5/12/4
f 7/13/5 1/14/5 3/15/5
f 4/16/6 6/17/6 8/18/6
f 2/1/1 4/19/1 3/2/1
f 4/4/2 8/20/2 7/5/2
f 8/7/3 6/21/3 5/8/3
f 6/10/4 2/22/4 1/11/4
f 7/13/5 5/23/5 1/14/5
f 4/16/6 2/24/6 6/17/6
