# Blender 4.1.1
# www.blender.org
mtllib pie1.mtl
o Pie1
v -1.892372 2.404926 8.201464
v -1.892372 1.008953 6.996698
v -0.892372 1.008953 8.217016
v -2.892372 1.008953 8.217016
vn -0.0000 0.0111 0.9999
vn -0.6786 0.4799 -0.5561
vn -0.0000 -1.0000 -0.0000
vn 0.6786 0.4799 -0.5561
vt 0.536131 0.070213
vt 0.594303 0.128385
vt 0.536131 0.128385
vt 0.547815 0.083074
vt 0.588054 0.123313
vt 0.547815 0.123313
vt 0.595056 0.050708
vt 0.595056 0.113103
vt 0.532661 0.113103
vt 0.543561 0.073428
vt 0.589592 0.119459
vt 0.543561 0.119459
s 0
usemtl hombro
f 3/1/1 1/2/1 4/3/1
f 4/4/2 1/5/2 2/6/2
f 2/7/3 3/8/3 4/9/3
f 2/10/4 1/11/4 3/12/4
