# Blender 4.1.1
# www.blender.org
mtllib pierna2.mtl
o Pierna2
v 1.064195 -0.895613 3.484171
v 1.064195 0.937159 3.484171
v 1.046510 -0.646639 -0.749590
v 1.046510 0.688185 -0.749590
v 2.700145 -0.895613 3.484171
v 2.700145 0.937159 3.484171
v 2.237986 -0.646639 -0.749590
v 2.237986 0.688185 -0.749590
vn -1.0000 -0.0000 0.0042
vn -0.0000 -0.0000 -1.0000
vn 0.9941 -0.0000 -0.1085
vn -0.0000 -0.0000 1.0000
vn -0.0000 -0.9983 -0.0587
vn -0.0000 0.9983 -0.0587
vt 0.380217 0.183265
vt 0.330845 0.374971
vt 0.329034 0.184365
vt 0.378755 0.283108
vt 0.333654 0.328209
vt 0.333654 0.283108
vt 0.299240 0.374346
vt 0.248147 0.184447
vt 0.298571 0.184840
vt 0.377083 0.286307
vt 0.335326 0.328064
vt 0.335326 0.286307
vt 0.338160 0.318913
vt 0.377533 0.279539
vt 0.377533 0.318913
vt 0.337736 0.273743
vt 0.378237 0.314243
vt 0.337736 0.314243
vt 0.379962 0.374341
vt 0.378755 0.328209
vt 0.249462 0.374861
vt 0.377083 0.328064
vt 0.338160 0.279539
vt 0.378237 0.273743
s 0
usemtl hombro
f 2/1/1 3/2/1 1/3/1
f 4/4/2 7/5/2 3/6/2
f 7/7/3 6/8/3 5/9/3
f 6/10/4 1/11/4 5/12/4
f 7/13/5 1/14/5 3/15/5
f 8/16/6 2/17/6 6/18/6
f 2/1/1 4/19/1 3/2/1
f 4/4/2 8/20/2 7/5/2
f 7/7/3 8/21/3 6/8/3
f 6/10/4 2/22/4 1/11/4
f 7/13/5 5/23/5 1/14/5
f 8/16/6 4/24/6 2/17/6
