# Blender 4.1.1
# www.blender.org
mtllib pierna1.mtl
o Pierna1
v -2.685072 -0.895613 3.484171
v -2.685072 0.937159 3.484171
v -2.240049 -0.646639 -0.749590
v -2.240049 0.688185 -0.749590
v -1.049123 -0.895613 3.484171
v -1.049123 0.937159 3.484171
v -1.048573 -0.646639 -0.749590
v -1.048573 0.688185 -0.749590
vn -0.9945 -0.0000 -0.1045
vn -0.0000 -0.0000 -1.0000
vn 1.0000 -0.0000 0.0001
vn -0.0000 -0.0000 1.0000
vn -0.0000 -0.9983 -0.0587
vn -0.0000 0.9983 -0.0587
vt 0.379781 0.185250
vt 0.331286 0.374981
vt 0.332624 0.184725
vt 0.372122 0.268609
vt 0.338544 0.302187
vt 0.338544 0.268609
vt 0.332334 0.376196
vt 0.381990 0.183494
vt 0.380327 0.375938
vt 0.379724 0.263063
vt 0.336077 0.306710
vt 0.336077 0.263063
vt 0.332370 0.268225
vt 0.379943 0.315798
vt 0.332370 0.315798
vt 0.386711 0.275556
vt 0.413081 0.187440
vt 0.413081 0.276210
vt 0.379913 0.375498
vt 0.372122 0.302187
vt 0.334127 0.184355
vt 0.379724 0.306710
vt 0.379943 0.268225
vt 0.382890 0.187167
s 0
usemtl hombro
f 2/1/1 3/2/1 1/3/1
f 4/4/2 7/5/2 3/6/2
f 8/7/3 5/8/3 7/9/3
f 6/10/4 1/11/4 5/12/4
f 3/13/5 5/14/5 1/15/5
f 4/16/6 6/17/6 8/18/6
f 2/1/1 4/19/1 3/2/1
f 4/4/2 8/20/2 7/5/2
f 8/7/3 6/21/3 5/8/3
f 6/10/4 2/22/4 1/11/4
f 3/13/5 7/23/5 5/14/5
f 4/16/6 2/24/6 6/17/6
