# Blender 4.1.1
# www.blender.org
mtllib rueda2.mtl
o rueda12
v -1.939262 -0.146007 3.448462
v -3.349033 -0.140699 3.448462
v -1.938175 0.142745 3.476902
v -3.347946 0.148052 3.476902
v -1.937130 0.420400 3.561129
v -3.346900 0.425707 3.561129
v -1.936167 0.676288 3.697906
v -3.345937 0.681596 3.697906
v -1.935323 0.900576 3.881978
v -3.345093 0.905884 3.881978
v -1.934630 1.084645 4.106269
v -3.344400 1.089952 4.106269
v -1.934115 1.221420 4.362161
v -3.343885 1.226727 4.362161
v -1.933798 1.305646 4.639820
v -3.343568 1.310953 4.639820
v -1.933691 1.334085 4.928576
v -3.343461 1.339393 4.928576
v -1.933798 1.305646 5.217332
v -3.343568 1.310953 5.217332
v -1.934115 1.221420 5.494991
v -3.343885 1.226727 5.494991
v -1.934630 1.084645 5.750883
v -3.344400 1.089952 5.750883
v -1.935323 0.900576 5.975174
v -3.345093 0.905884 5.975174
v -1.936167 0.676288 6.159245
v -3.345937 0.681596 6.159245
v -1.937130 0.420400 6.296022
v -3.346900 0.425707 6.296022
v -1.938175 0.142745 6.380250
v -3.347946 0.148052 6.380250
v -1.939262 -0.146007 6.408689
v -3.349033 -0.140699 6.408689
v -1.940349 -0.434758 6.380250
v -3.350120 -0.429451 6.380250
v -1.941395 -0.712413 6.296022
v -3.351165 -0.707106 6.296022
v -1.942358 -0.968302 6.159245
v -3.352129 -0.962995 6.159245
v -1.943202 -1.192590 5.975174
v -3.352973 -1.187283 5.975174
v -1.943895 -1.376658 5.750883
v -3.353666 -1.371351 5.750883
v -1.944410 -1.513434 5.494991
v -3.354181 -1.508126 5.494991
v -1.944727 -1.597659 5.217332
v -3.354498 -1.592352 5.217332
v -1.944834 -1.626099 4.928576
v -3.354605 -1.620792 4.928576
v -1.944727 -1.597659 4.639820
v -3.354498 -1.592352 4.639820
v -1.944410 -1.513434 4.362161
v -3.354181 -1.508126 4.362161
v -1.943895 -1.376658 4.106269
v -3.353666 -1.371351 4.106269
v -1.943202 -1.192590 3.881978
v -3.352973 -1.187283 3.881978
v -1.942358 -0.968302 3.697906
v -3.352129 -0.962995 3.697906
v -1.941395 -0.712413 3.561129
v -3.351165 -0.707106 3.561129
v -1.940349 -0.434758 3.476902
v -3.350120 -0.429451 3.476902
vn 0.0004 0.0980 -0.9952
vn 0.0011 0.2903 -0.9569
vn 0.0018 0.4714 -0.8819
vn 0.0024 0.6344 -0.7730
vn 0.0029 0.7730 -0.6344
vn 0.0033 0.8819 -0.4714
vn 0.0036 0.9569 -0.2903
vn 0.0037 0.9952 -0.0980
vn 0.0037 0.9952 0.0980
vn 0.0036 0.9569 0.2903
vn 0.0033 0.8819 0.4714
vn 0.0029 0.7730 0.6344
vn 0.0024 0.6344 0.7730
vn 0.0018 0.4714 0.8819
vn 0.0011 0.2903 0.9569
vn 0.0004 0.0980 0.9952
vn -0.0004 -0.0980 0.9952
vn -0.0011 -0.2903 0.9569
vn -0.0018 -0.4714 0.8819
vn -0.0024 -0.6344 0.7730
vn -0.0029 -0.7730 0.6344
vn -0.0033 -0.8819 0.4714
vn -0.0036 -0.9569 0.2903
vn -0.0037 -0.9952 0.0980
vn -0.0037 -0.9952 -0.0980
vn -0.0036 -0.9569 -0.2903
vn -0.0033 -0.8819 -0.4714
vn -0.0029 -0.7730 -0.6344
vn -0.0024 -0.6344 -0.7730
vn -0.0018 -0.4714 -0.8819
vn -1.0000 0.0038 -0.0000
vn -0.0011 -0.2903 -0.9569
vn -0.0004 -0.0980 -0.9952
vn 1.0000 -0.0038 -0.0000
vt 1.000000 1.000000
vt 0.968750 0.500000
vt 1.000000 0.500000
vt 0.968750 1.000000
vt 0.937500 0.500000
vt 0.937500 1.000000
vt 0.906250 0.500000
vt 0.906250 1.000000
vt 0.875000 0.500000
vt 0.875000 1.000000
vt 0.843750 0.500000
vt 0.843750 1.000000
vt 0.812500 0.500000
vt 0.812500 1.000000
vt 0.781250 0.500000
vt 0.781250 1.000000
vt 0.750000 0.500000
vt 0.750000 1.000000
vt 0.718750 0.500000
vt 0.718750 1.000000
vt 0.687500 0.500000
vt 0.687500 1.000000
vt 0.656250 0.500000
vt 0.656250 1.000000
vt 0.625000 0.500000
vt 0.625000 1.000000
vt 0.593750 0.500000
vt 0.593750 1.000000
vt 0.562500 0.500000
vt 0.562500 1.000000
vt 0.531250 0.500000
vt 0.531250 1.000000
vt 0.500000 0.500000
vt 0.500000 1.000000
vt 0.468750 0.500000
vt 0.468750 1.000000
vt 0.437500 0.500000
vt 0.437500 1.000000
vt 0.406250 0.500000
vt 0.406250 1.000000
vt 0.375000 0.500000
vt 0.375000 1.000000
vt 0.343750 0.500000
vt 0.343750 1.000000
vt 0.312500 0.500000
vt 0.312500 1.000000
vt 0.281250 0.500000
vt 0.281250 1.000000
vt 0.250000 0.500000
vt 0.250000 1.000000
vt 0.218750 0.500000
vt 0.218750 1.000000
vt 0.187500 0.500000
vt 0.187500 1.000000
vt 0.156250 0.500000
vt 0.156250 1.000000
vt 0.125000 0.500000
vt 0.125000 1.000000
vt 0.093750 0.500000
vt 0.093750 1.000000
vt 0.062500 0.500000
vt 0.221951 0.120297
vt 0.257591 0.125899
vt 0.247225 0.158337
vt 0.062500 1.000000
vt 0.031250 0.500000
vt 0.031250 1.000000
vt 0.000000 0.500000
vt 0.796822 0.014612
vt 0.514612 0.203178
vt 0.703178 0.485388
vt 0.242235 0.159914
vt 0.237026 0.160637
vt 0.231799 0.160476
vt 0.226783 0.159402
vt 0.222254 0.157372
vt 0.218378 0.154395
vt 0.214956 0.151272
vt 0.212032 0.148331
vt 0.209826 0.145436
vt 0.208479 0.142748
vt 0.208516 0.137937
vt 0.209817 0.132169
vt 0.212038 0.127111
vt 0.214806 0.123746
vt 0.218092 0.121673
vt 0.226358 0.119204
vt 0.230931 0.118392
vt 0.235586 0.117884
vt 0.240196 0.118228
vt 0.244857 0.119133
vt 0.249493 0.120534
vt 0.253823 0.122681
vt 0.260580 0.130308
vt 0.262559 0.134852
vt 0.263131 0.139349
vt 0.262126 0.143913
vt 0.259536 0.148472
vt 0.256003 0.152541
vt 0.251844 0.155870
vt 0.000000 1.000000
vt 0.750000 0.490000
vt 0.796822 0.485388
vt 0.841844 0.471731
vt 0.883337 0.449553
vt 0.919706 0.419706
vt 0.949553 0.383337
vt 0.971731 0.341844
vt 0.985388 0.296822
vt 0.990000 0.250000
vt 0.985388 0.203178
vt 0.971731 0.158156
vt 0.949553 0.116663
vt 0.919706 0.080294
vt 0.883337 0.050447
vt 0.841844 0.028269
vt 0.750000 0.010000
vt 0.703178 0.014612
vt 0.658156 0.028269
vt 0.616663 0.050447
vt 0.580294 0.080294
vt 0.550447 0.116663
vt 0.528269 0.158156
vt 0.510000 0.250000
vt 0.514612 0.296822
vt 0.528269 0.341844
vt 0.550447 0.383337
vt 0.580294 0.419706
vt 0.616663 0.449553
vt 0.658156 0.471731
s 0
usemtl negro
f 2/1/1 3/2/1 1/3/1
f 4/4/2 5/5/2 3/2/2
f 6/6/3 7/7/3 5/5/3
f 8/8/4 9/9/4 7/7/4
f 10/10/5 11/11/5 9/9/5
f 12/12/6 13/13/6 11/11/6
f 14/14/7 15/15/7 13/13/7
f 16/16/8 17/17/8 15/15/8
f 18/18/9 19/19/9 17/17/9
f 20/20/10 21/21/10 19/19/10
f 22/22/11 23/23/11 21/21/11
f 24/24/12 25/25/12 23/23/12
f 26/26/13 27/27/13 25/25/13
f 28/28/14 29/29/14 27/27/14
f 30/30/15 31/31/15 29/29/15
f 32/32/16 33/33/16 31/31/16
f 34/34/17 35/35/17 33/33/17
f 36/36/18 37/37/18 35/35/18
f 38/38/19 39/39/19 37/37/19
f 40/40/20 41/41/20 39/39/20
f 42/42/21 43/43/21 41/41/21
f 44/44/22 45/45/22 43/43/22
f 46/46/23 47/47/23 45/45/23
f 48/48/24 49/49/24 47/47/24
f 50/50/25 51/51/25 49/49/25
f 52/52/26 53/53/26 51/51/26
f 54/54/27 55/55/27 53/53/27
f 56/56/28 57/57/28 55/55/28
f 58/58/29 59/59/29 57/57/29
f 60/60/30 61/61/30 59/59/30
f 62/65/32 63/66/32 61/61/32
f 64/67/33 1/68/33 63/66/33
f 31/69/34 47/70/34 63/71/34
f 2/1/1 4/4/1 3/2/1
f 4/4/2 6/6/2 5/5/2
f 6/6/3 8/8/3 7/7/3
f 8/8/4 10/10/4 9/9/4
f 10/10/5 12/12/5 11/11/5
f 12/12/6 14/14/6 13/13/6
f 14/14/7 16/16/7 15/15/7
f 16/16/8 18/18/8 17/17/8
f 18/18/9 20/20/9 19/19/9
f 20/20/10 22/22/10 21/21/10
f 22/22/11 24/24/11 23/23/11
f 24/24/12 26/26/12 25/25/12
f 26/26/13 28/28/13 27/27/13
f 28/28/14 30/30/14 29/29/14
f 30/30/15 32/32/15 31/31/15
f 32/32/16 34/34/16 33/33/16
f 34/34/17 36/36/17 35/35/17
f 36/36/18 38/38/18 37/37/18
f 38/38/19 40/40/19 39/39/19
f 40/40/20 42/42/20 41/41/20
f 42/42/21 44/44/21 43/43/21
f 44/44/22 46/46/22 45/45/22
f 46/46/23 48/48/23 47/47/23
f 48/48/24 50/50/24 49/49/24
f 50/50/25 52/52/25 51/51/25
f 52/52/26 54/54/26 53/53/26
f 54/54/27 56/56/27 55/55/27
f 56/56/28 58/58/28 57/57/28
f 58/58/29 60/60/29 59/59/29
f 60/60/30 62/65/30 61/61/30
f 62/65/32 64/67/32 63/66/32
f 64/67/33 2/101/33 1/68/33
f 63/71/34 1/102/34 3/103/34
f 3/103/34 5/104/34 7/105/34
f 7/105/34 9/106/34 11/107/34
f 11/107/34 13/108/34 15/109/34
f 15/109/34 17/110/34 19/111/34
f 19/111/34 21/112/34 23/113/34
f 23/113/34 25/114/34 27/115/34
f 27/115/34 29/116/34 31/69/34
f 31/69/34 33/117/34 35/118/34
f 35/118/34 37/119/34 39/120/34
f 39/120/34 41/121/34 43/122/34
f 43/122/34 45/123/34 47/70/34
f 47/70/34 49/124/34 51/125/34
f 51/125/34 53/126/34 55/127/34
f 55/127/34 57/128/34 59/129/34
f 59/129/34 61/130/34 63/71/34
f 63/71/34 3/103/34 7/105/34
f 7/105/34 11/107/34 15/109/34
f 15/109/34 19/111/34 23/113/34
f 23/113/34 27/115/34 31/69/34
f 31/69/34 35/118/34 39/120/34
f 39/120/34 43/122/34 47/70/34
f 47/70/34 51/125/34 55/127/34
f 55/127/34 59/129/34 63/71/34
f 63/71/34 7/105/34 15/109/34
f 15/109/34 23/113/34 31/69/34
f 31/69/34 39/120/34 47/70/34
f 47/70/34 55/127/34 63/71/34
f 63/71/34 15/109/34 31/69/34
usemtl pecho
f 38/62/31 22/63/31 6/64/31
f 6/64/31 4/72/31 2/73/31
f 2/73/31 64/74/31 62/75/31
f 62/75/31 60/76/31 58/77/31
f 58/77/31 56/78/31 54/79/31
f 54/79/31 52/80/31 50/81/31
f 50/81/31 48/82/31 46/83/31
f 46/83/31 44/84/31 42/85/31
f 42/85/31 40/86/31 38/62/31
f 38/62/31 36/87/31 34/88/31
f 34/88/31 32/89/31 30/90/31
f 30/90/31 28/91/31 26/92/31
f 26/92/31 24/93/31 22/63/31
f 22/63/31 20/94/31 18/95/31
f 18/95/31 16/96/31 14/97/31
f 14/97/31 12/98/31 10/99/31
f 10/99/31 8/100/31 6/64/31
f 6/64/31 2/73/31 62/75/31
f 62/75/31 58/77/31 54/79/31
f 54/79/31 50/81/31 46/83/31
f 46/83/31 42/85/31 38/62/31
f 38/62/31 34/88/31 30/90/31
f 30/90/31 26/92/31 22/63/31
f 22/63/31 18/95/31 14/97/31
f 14/97/31 10/99/31 6/64/31
f 6/64/31 62/75/31 54/79/31
f 54/79/31 46/83/31 38/62/31
f 38/62/31 30/90/31 22/63/31
f 22/63/31 14/97/31 6/64/31
f 6/64/31 54/79/31 38/62/31
